# xmcd CD database file
#
# Track frame offsets:
#	150
#	10035
#	22647
#	32892
#	58390
#	73912
#	89277
#	102665
#	114860
#	134687
#
# Disc length: 1985 seconds
#
# Revision: 2
# Processed by: cddbd v1.5.2PL0 Copyright (c) Steve Scherf et al.
# Submitted via: CDex 1.51
#
DISCID=8507bf0a
DTITLE=Steve Wariner - Christmas Memories
DYEAR=1990
DGENRE=Christmas
TTITLE0=Christmas Memories
TTITLE1=Let It Snow, Let It Snow, Let It Snow
TTITLE2=I Saw Three Ships
TTITLE3=Melody: Hark the Herald Angels Sing, The First Noel, Oh Come All Ye Faithful
TTITLE4=Our Savior Is Born
TTITLE5=On Christmas Morning
TTITLE6=The Most Wonderful Time of The Year
TTITLE7=Past Three O' Clock
TTITLE8=Do You Hear What I Hear
TTITLE9=God Rest Ye Merry Gentlemen
EXTD=YEAR: 1990
EXTT0=
EXTT1=
EXTT2=
EXTT3=
EXTT4=
EXTT5=
EXTT6=
EXTT7=
EXTT8=
EXTT9=
PLAYORDER=
